# xmcd
#
# Track frame offsets:
# 150
# 16570
# 34274
# 52168
# 66873
# 84347
# 101632
# 113362
# 132694
# 150157
# 166094
# 182841
# 199483
# 213473
# 232266
# 248590
# 260092
# 274457
# 290325
# 300161
# 319645
#
# Disc length: 4376 seconds
#
# Revision: 0
# Processed by: cddbd v1.4PL0 Copyright (c) Steve Scherf et al.
# Submitted via: Audion 3.0.2 (http://www.panic.com/audion/)
#
DISCID=26111615
DTITLE=Demis Roussos - Grand Collection
DYEAR=1900
DGENRE=
TTITLE0=Forever And Ever
TTITLE1=My Friend In The Wind
TTITLE2=My Reason
TTITLE3=When I Am A Kind
TTITLE4=Good-Bye My Love, Good-Bye
TTITLE5=It's Five O'Clock
TTITLE6=From Souvenirs To Souvenirs
TTITLE7=Names
TTITLE8=We Pretend
TTITLE9=Let It Be Me
TTITLE10=My Only Fascination
TTITLE11=Shadows
TTITLE12=Someday, Somewhere
TTITLE13=Lost In A Dream
TTITLE14=Velvet Mornings
TTITLE15=Can't Say How Much I Love You
TTITLE16=Happy To Be On An Island In The Sun
TTITLE17=We Shall Dance
TTITLE18=End Of The Line
TTITLE19=Lord Of The Files
TTITLE20=Without You
EXTD=
EXTT0=
EXTT1=
EXTT2=
EXTT3=
EXTT4=
EXTT5=
EXTT6=
EXTT7=
EXTT8=
EXTT9=
EXTT10=
EXTT11=
EXTT12=
EXTT13=
EXTT14=
EXTT15=
EXTT16=
EXTT17=
EXTT18=
EXTT19=
EXTT20=
PLAYORDER=
